<svg width="15" height="16" viewBox="0 0 15 16" fill="none" xmlns="http://www.w3.org/2000/svg">
<path d="M7.71401 0.503586C3.34017 0.371728 -0.00626916 3.89531 8.81856e-06 7.9657C0.0193887 12.082 3.31288 15.2992 7.22269 15.3975C11.6077 15.5067 14.7836 12.0396 14.8963 8.23106C15.0295 3.79566 11.5267 0.61879 7.71401 0.503586ZM13.5454 10.3214C13.4545 10.5037 13.3817 10.6954 13.2943 10.8792C13.2705 10.9282 13.2176 10.9632 13.1783 11.0047L13.1537 11.0355C13.1458 11.0454 13.1382 11.0555 13.1303 11.0655C12.9054 11.3746 12.574 11.5403 12.25 11.7153C11.6457 12.0415 11.0168 12.2886 10.3235 12.3547C9.58649 12.4232 8.87407 12.3053 8.17285 12.0901C7.71374 11.9481 7.25544 11.8008 6.79388 11.6623C5.76047 11.3547 4.73715 11.4143 3.7253 11.7642C3.38302 11.8827 3.04292 12.0098 2.705 12.1374C2.65586 12.1607 2.60876 12.1882 2.56416 12.2193C2.53822 12.2122 2.5022 12.2138 2.488 12.1969C1.9895 11.6181 1.59831 10.955 1.33285 10.2387C1.29682 10.1409 1.26571 10.0408 1.22367 9.9455C1.18437 9.85567 1.20838 9.78468 1.27389 9.72463C1.52474 9.49504 1.77804 9.26845 2.02889 9.03913C2.20631 8.87697 2.38255 8.71317 2.5576 8.54773C2.88515 8.23979 3.19851 7.91602 3.54434 7.63073C3.63741 7.55402 3.82985 7.5644 3.9696 7.58433C4.5974 7.67359 5.14331 7.97498 5.68705 8.27719C6.13469 8.52589 6.56978 8.7997 7.07256 8.93375C7.68508 9.09755 8.29213 9.09127 8.88636 8.86878C9.12056 8.78115 9.33619 8.6441 9.56438 8.53926C9.6127 8.51688 9.69485 8.5136 9.73661 8.53926C10.0265 8.72491 10.3099 8.91928 10.5953 9.11256C10.9177 9.33233 11.2807 9.42678 11.6624 9.42077C12.0267 9.41477 12.3226 9.30339 12.678 9.09728C12.7839 9.2133 12.8964 9.33042 13.0015 9.45217C13.1595 9.63262 13.3107 9.81936 13.4715 9.99815C13.5607 10.0956 13.6128 10.1857 13.5454 10.3214ZM4.49832 6.69871C4.55291 6.62501 4.59386 6.55621 4.64626 6.49697C5.0284 6.06672 5.41054 5.63894 5.79268 5.20952C5.90622 5.08202 5.94281 5.08639 6.0599 5.21252C6.47616 5.66106 6.87577 6.1276 7.32014 6.54666C7.77352 6.97417 8.27248 7.35336 8.75097 7.75413C8.78428 7.78142 8.81429 7.81391 8.86342 7.86087C8.5365 8.06072 8.15241 8.14619 7.7716 8.10383C7.21532 8.04923 6.74611 7.78006 6.27935 7.51006C5.73918 7.19776 5.19627 6.89719 4.58839 6.73476C4.55776 6.72434 4.52769 6.71231 4.49832 6.69871ZM10.2613 7.6624C10.491 7.43854 10.7023 7.22833 10.9212 7.02604C10.9403 7.0083 11.0279 7.02604 11.049 7.05334C11.3493 7.4511 11.6394 7.85541 11.9394 8.2529C12.0109 8.3479 11.9775 8.38639 11.8891 8.42106C11.6435 8.51797 11.4055 8.49531 11.1909 8.3438C10.9253 8.15598 10.6687 7.95533 10.4078 7.76068C10.3723 7.73475 10.3339 7.71126 10.2613 7.6624ZM13.8465 8.95231C12.8423 7.82811 11.9296 6.67169 11.1644 5.37905C11.1074 5.43037 11.0668 5.46395 11.0296 5.50108C10.5596 5.97027 10.0897 6.43982 9.62007 6.90975C9.50487 7.02467 9.47103 7.02359 9.3471 6.91957C8.94586 6.58079 8.53125 6.25646 8.14447 5.90184C7.75769 5.54722 7.3911 5.16638 7.02535 4.78747C6.7644 4.51692 6.51874 4.23164 6.26871 3.95072C6.18464 3.856 6.10931 3.75362 6.02851 3.65616C5.93953 3.54887 5.89203 3.55242 5.80223 3.65753C5.44493 4.07986 5.09254 4.50382 4.72624 4.92014C4.42108 5.2674 4.10908 5.60946 3.78727 5.94143C3.16093 6.58788 2.5294 7.22925 1.89268 7.86551C1.65248 8.10602 1.3959 8.3296 1.14506 8.55974C1.11094 8.59113 1.06617 8.61079 1.00422 8.64983C0.901309 7.83466 0.976918 7.0588 1.17726 6.29632C1.51819 5.00886 2.18911 3.91224 3.20124 3.05066C5.78667 0.851384 9.17132 1.08234 11.4109 2.81096C13.7045 4.58135 14.1766 7.26682 13.8465 8.95231Z" fill="#19AFAF"/>
</svg>
