<svg width="15" height="16" viewBox="0 0 15 16" fill="none" xmlns="http://www.w3.org/2000/svg">
<path d="M7 4.13688V0H12V9.30798H3V4.1641L7 4.13688Z" fill="#D9D9D9"/>
<path d="M4.5 2.06844L6.5 0V1.55133V3.61977H4.5H3L4.5 2.06844Z" fill="#D9D9D9"/>
<path d="M3.37214 11.9412C3.35438 11.7459 3.27537 11.5941 3.1351 11.4858C2.9966 11.3757 2.79863 11.3206 2.54117 11.3206C2.37072 11.3206 2.22867 11.3428 2.11503 11.3872C2.0014 11.4316 1.91617 11.4929 1.85935 11.571C1.80253 11.6474 1.77324 11.7352 1.77146 11.8347C1.76791 11.9164 1.78389 11.9883 1.8194 12.0504C1.85669 12.1126 1.90996 12.1676 1.9792 12.2155C2.05023 12.2617 2.13545 12.3025 2.23489 12.338C2.33432 12.3736 2.44618 12.4046 2.57047 12.4313L3.03922 12.5378C3.3091 12.5964 3.54703 12.6745 3.753 12.7722C3.96074 12.8698 4.13474 12.9861 4.27501 13.1211C4.41706 13.256 4.52448 13.4114 4.59728 13.5872C4.67008 13.7629 4.70736 13.96 4.70914 14.1784C4.70736 14.5229 4.62036 14.8185 4.44813 15.0653C4.2759 15.3121 4.02821 15.5012 3.70506 15.6326C3.38368 15.764 2.99572 15.8297 2.54117 15.8297C2.08485 15.8297 1.68712 15.7613 1.34799 15.6246C1.00886 15.4879 0.745184 15.2802 0.556974 15.0014C0.368763 14.7226 0.271995 14.3702 0.266668 13.944H1.5291C1.53975 14.1198 1.5868 14.2663 1.67025 14.3835C1.75371 14.5007 1.86823 14.5895 2.01383 14.6498C2.1612 14.7102 2.33165 14.7404 2.52519 14.7404C2.70275 14.7404 2.85367 14.7164 2.97796 14.6685C3.10403 14.6205 3.20079 14.554 3.26827 14.4687C3.33574 14.3835 3.37036 14.2858 3.37214 14.1758C3.37036 14.0728 3.3384 13.9849 3.27626 13.9121C3.21411 13.8375 3.11823 13.7736 2.98861 13.7203C2.86077 13.6653 2.69742 13.6147 2.49856 13.5685L1.9286 13.4353C1.4563 13.327 1.08432 13.1521 0.812655 12.9107C0.540993 12.6674 0.40605 12.3389 0.407826 11.9252C0.40605 11.5879 0.496604 11.2922 0.679488 11.0383C0.862371 10.7844 1.11539 10.5865 1.43854 10.4444C1.7617 10.3024 2.13013 10.2313 2.54383 10.2313C2.96642 10.2313 3.33307 10.3032 3.6438 10.4471C3.9563 10.5891 4.19866 10.7889 4.37089 11.0463C4.54312 11.3038 4.63101 11.6021 4.63457 11.9412H3.37214ZM5.19653 11.3766V10.3059H9.8068V11.3766H8.15285V15.7605H6.85314V11.3766H5.19653ZM13.399 11.9412C13.3812 11.7459 13.3022 11.5941 13.162 11.4858C13.0235 11.3757 12.8255 11.3206 12.568 11.3206C12.3976 11.3206 12.2555 11.3428 12.1419 11.3872C12.0283 11.4316 11.943 11.4929 11.8862 11.571C11.8294 11.6474 11.8001 11.7352 11.7983 11.8347C11.7948 11.9164 11.8107 11.9883 11.8463 12.0504C11.8835 12.1126 11.9368 12.1676 12.0061 12.2155C12.0771 12.2617 12.1623 12.3025 12.2617 12.338C12.3612 12.3736 12.473 12.4046 12.5973 12.4313L13.0661 12.5378C13.336 12.5964 13.5739 12.6745 13.7799 12.7722C13.9876 12.8698 14.1616 12.9861 14.3019 13.1211C14.4439 13.256 14.5513 13.4114 14.6241 13.5872C14.6969 13.7629 14.7342 13.96 14.736 14.1784C14.7342 14.5229 14.6472 14.8185 14.475 15.0653C14.3028 15.3121 14.0551 15.5012 13.7319 15.6326C13.4105 15.764 13.0226 15.8297 12.568 15.8297C12.1117 15.8297 11.714 15.7613 11.3748 15.6246C11.0357 15.4879 10.772 15.2802 10.5838 15.0014C10.3956 14.7226 10.2989 14.3702 10.2935 13.944H11.556C11.5666 14.1198 11.6137 14.2663 11.6971 14.3835C11.7806 14.5007 11.8951 14.5895 12.0407 14.6498C12.1881 14.7102 12.3585 14.7404 12.552 14.7404C12.7296 14.7404 12.8805 14.7164 13.0048 14.6685C13.1309 14.6205 13.2277 14.554 13.2951 14.4687C13.3626 14.3835 13.3972 14.2858 13.399 14.1758C13.3972 14.0728 13.3653 13.9849 13.3031 13.9121C13.241 13.8375 13.1451 13.7736 13.0155 13.7203C12.8876 13.6653 12.7243 13.6147 12.5254 13.5685L11.9555 13.4353C11.4832 13.327 11.1112 13.1521 10.8395 12.9107C10.5678 12.6674 10.4329 12.3389 10.4347 11.9252C10.4329 11.5879 10.5235 11.2922 10.7063 11.0383C10.8892 10.7844 11.1422 10.5865 11.4654 10.4444C11.7886 10.3024 12.157 10.2313 12.5707 10.2313C12.9933 10.2313 13.3599 10.3032 13.6707 10.4471C13.9832 10.5891 14.2255 10.7889 14.3977 11.0463C14.57 11.3038 14.6579 11.6021 14.6614 11.9412H13.399Z" fill="#19AFAF"/>
</svg>
